# xmcd
#
# Track frame offsets: 
#        183
#        20508
#        42298
#        56793
#
# Disc length: 998 seconds
#
# Revision: 3
# Processed by: cddbd v1.4PL0 Copyright (c) Steve Scherf et al.
# Submitted via: ExactAudioCopy v0.95a1
#
DISCID=2f03e404
DTITLE=Sheryl Crow - Run Baby Run (Promo)
DYEAR=1993
DGENRE=Pop
TTITLE0=Run Baby Run
TTITLE1=All By Myself
TTITLE2=The Na Na Song
TTITLE3=Reach Around Jerk
EXTD=YEAR: 1991 ID3G: 0
EXTT0=
EXTT1=
EXTT2=
EXTT3=
PLAYORDER=
